<svg width="31" height="23" fill="none" xmlns="http://www.w3.org/2000/svg"><path opacity=".85" d="M20.148 7.227a3.203 3.203 0 002.93-1.922h3.703c.668 0 1.219-.586 1.219-1.266 0-.703-.55-1.277-1.219-1.277h-3.703a3.195 3.195 0 00-2.93-1.934c-1.312 0-2.449.797-2.941 1.934H4.551c-.692 0-1.242.586-1.242 1.277 0 .668.55 1.266 1.242 1.266h12.668a3.203 3.203 0 002.93 1.922zm0-1.7c-.832 0-1.5-.668-1.5-1.5 0-.855.668-1.5 1.5-1.5.844 0 1.5.645 1.5 1.5 0 .832-.656 1.5-1.5 1.5zM4.516 10.191c-.657 0-1.207.575-1.207 1.266 0 .68.55 1.277 1.207 1.277h3.843a3.22 3.22 0 002.942 1.922c1.3 0 2.437-.797 2.93-1.922h12.515c.703 0 1.254-.586 1.254-1.277s-.55-1.266-1.254-1.266H14.231A3.203 3.203 0 0011.3 8.27a3.203 3.203 0 00-2.93 1.921H4.516zM11.3 12.97c-.832 0-1.5-.68-1.5-1.512 0-.844.668-1.5 1.5-1.5.855 0 1.5.656 1.5 1.5a1.49 1.49 0 01-1.5 1.512zm8.847 9.117a3.195 3.195 0 002.93-1.934h3.703c.668 0 1.219-.574 1.219-1.265 0-.703-.55-1.266-1.219-1.266h-3.703a3.195 3.195 0 00-2.93-1.933 3.224 3.224 0 00-2.941 1.933H4.551c-.692 0-1.242.574-1.242 1.266 0 .68.55 1.265 1.242 1.265h12.656a3.211 3.211 0 002.941 1.934zm0-1.7c-.832 0-1.5-.667-1.5-1.5 0-.843.668-1.5 1.5-1.5.844 0 1.5.657 1.5 1.5 0 .833-.656 1.5-1.5 1.5z" fill="#fff"/></svg>