<svg width="108" height="16" fill="none" xmlns="http://www.w3.org/2000/svg"><path d="M3.469 15.672H17.64c1.687 0 2.578-.875 2.578-2.547V4.922c0-1.672-.89-2.547-2.578-2.547h-2.133c-.61 0-.805-.102-1.188-.5l-.617-.664c-.406-.43-.82-.64-1.617-.64H8.984c-.796 0-1.203.21-1.617.64l-.617.664c-.375.39-.578.5-1.188.5H3.47c-1.688 0-2.57.875-2.57 2.547v8.203c0 1.672.882 2.547 2.57 2.547zm.101-1.555c-.71 0-1.117-.375-1.117-1.133V5.063c0-.75.406-1.125 1.117-1.125h2.446c.703 0 1.062-.126 1.46-.555l.594-.656c.438-.477.672-.602 1.36-.602h2.21c.688 0 .922.125 1.352.594l.602.664c.398.43.758.554 1.46.554h2.485c.719 0 1.117.376 1.117 1.126v7.921c0 .758-.398 1.133-1.117 1.133H3.57zm6.985-1.031a4.203 4.203 0 004.218-4.227 4.203 4.203 0 00-4.218-4.226 4.201 4.201 0 00-4.211 4.226 4.201 4.201 0 004.21 4.227zm4.484-7.024c0 .57.461 1.016 1.024 1.008a1.01 1.01 0 001.007-1.008c0-.546-.468-1.015-1.008-1.015a1.03 1.03 0 00-1.023 1.016zm-4.484 5.602A2.8 2.8 0 017.758 8.86a2.79 2.79 0 012.797-2.804 2.792 2.792 0 012.804 2.804 2.797 2.797 0 01-2.804 2.805zm19.797 2.524c2.671 0 4.296-1.305 4.296-3.36v-.008c0-1.742-1-2.687-3.328-3.18l-1.234-.257c-1.406-.305-2.047-.82-2.047-1.664V5.71c0-.984.89-1.649 2.29-1.656 1.335 0 2.241.633 2.398 1.68l.007.109h1.703l-.007-.133c-.117-1.89-1.727-3.172-4.078-3.172-2.383 0-4.079 1.32-4.086 3.242v.008c0 1.672 1.07 2.688 3.28 3.156l1.227.258c1.493.328 2.11.82 2.11 1.727v.008c0 1.054-.953 1.734-2.461 1.734s-2.547-.649-2.703-1.688l-.016-.101H26l.008.117c.14 1.984 1.812 3.188 4.344 3.188zm9.203-.024c1.976 0 3.351-1.266 3.53-2.914l.009-.055h-1.625l-.008.063c-.203.89-.867 1.492-1.906 1.492-1.305 0-2.172-1.055-2.172-2.852v-.007c0-1.758.851-2.852 2.164-2.852 1.101 0 1.726.68 1.906 1.484l.016.063h1.61l-.009-.055c-.14-1.547-1.422-2.906-3.539-2.906-2.343 0-3.875 1.648-3.875 4.25v.008c0 2.633 1.5 4.281 3.899 4.281zm7.148-.016c1.086 0 2.04-.562 2.516-1.445h.031V14h1.695V8.336c0-1.649-1.273-2.711-3.28-2.711-2.024 0-3.25 1.086-3.368 2.5l-.008.086h1.594l.015-.07c.141-.657.743-1.118 1.72-1.118 1.046 0 1.632.547 1.632 1.454v.617l-2.234.133c-1.946.117-3.055.992-3.055 2.421v.016c0 1.477 1.102 2.484 2.742 2.484zm-1.039-2.523v-.016c0-.695.563-1.14 1.578-1.203l2.008-.125v.64c0 1.071-.898 1.876-2.086 1.876-.906 0-1.5-.453-1.5-1.172zM52.586 14h1.687V9.21c0-1.28.766-2.14 1.954-2.14 1.171 0 1.75.696 1.75 1.93v5h1.695V8.68c0-1.89-1.04-3.055-2.844-3.055-1.242 0-2.086.563-2.516 1.398h-.039V5.781h-1.687V14zm14.383.148c1.086 0 2.039-.562 2.515-1.445h.032V14h1.695V8.336c0-1.649-1.273-2.711-3.281-2.711-2.024 0-3.25 1.086-3.368 2.5l-.007.086h1.593l.016-.07c.14-.657.742-1.118 1.719-1.118 1.047 0 1.633.547 1.633 1.454v.617l-2.235.133c-1.945.117-3.054.992-3.054 2.421v.016c0 1.477 1.101 2.484 2.742 2.484zm-1.04-2.523v-.016c0-.695.563-1.14 1.579-1.203l2.008-.125v.64c0 1.071-.899 1.876-2.086 1.876-.907 0-1.5-.453-1.5-1.172zM76.165 14h1.688V2.727h-1.688V14zm5.836.148c1.086 0 2.04-.562 2.516-1.445h.03V14h1.696V8.336c0-1.649-1.273-2.711-3.281-2.711-2.023 0-3.25 1.086-3.367 2.5l-.008.086h1.594l.015-.07c.14-.657.743-1.118 1.72-1.118 1.046 0 1.632.547 1.632 1.454v.617l-2.234.133c-1.946.117-3.055.992-3.055 2.421v.016c0 1.477 1.101 2.484 2.742 2.484zm-1.04-2.523v-.016c0-.695.563-1.14 1.58-1.203l2.007-.125v.64c0 1.071-.899 1.876-2.086 1.876-.906 0-1.5-.453-1.5-1.172zm11.29 2.54c2.086 0 3.438-1.657 3.438-4.274v-.008c0-2.617-1.36-4.258-3.422-4.258-1.164 0-2.102.586-2.594 1.555h-.04V2.727h-1.687V14h1.688v-1.39h.039c.484.96 1.398 1.554 2.578 1.554zm-.445-1.454c-1.282 0-2.18-1.11-2.18-2.82v-.008c0-1.703.906-2.813 2.18-2.813 1.328 0 2.156 1.078 2.156 2.813v.008c0 1.75-.828 2.82-2.156 2.82zm8.695 1.453c1.992 0 3.258-1.187 3.523-2.492l.016-.086h-1.601l-.024.062c-.211.618-.875 1.133-1.875 1.133-1.344 0-2.195-.906-2.227-2.46h5.821V9.75c0-2.469-1.414-4.125-3.719-4.125-2.305 0-3.789 1.719-3.789 4.29v.007c0 2.594 1.46 4.242 3.875 4.242zm-.078-7.156c1.101 0 1.898.695 2.039 2.117h-4.125c.148-1.375.992-2.117 2.086-2.117zM105.508 14h1.687V2.727h-1.687V14z" fill="#fff"/></svg>