<svg width="138" height="138" fill="none" xmlns="http://www.w3.org/2000/svg"><g filter="url(#filter0_di)"><circle cx="69" cy="67" r="65" fill="#fff"/></g><path d="M102.896 54.324c.915 0 1.41-.533 1.41-1.447V42.479c0-6.627-3.504-10.206-10.245-10.206H83.663c-.914 0-1.447.495-1.447 1.409s.533 1.409 1.447 1.409h10.283c4.8 0 7.541 2.59 7.541 7.54v10.246c0 .914.495 1.447 1.409 1.447zm-67.83 0c.913 0 1.409-.533 1.409-1.447V42.632c0-4.951 2.59-7.541 7.54-7.541H54.3c.914 0 1.447-.495 1.447-1.41 0-.913-.533-1.408-1.447-1.408h-10.36c-6.74 0-10.283 3.503-10.283 10.206v10.398c0 .914.495 1.447 1.41 1.447zm8.873 48.598H54.3c.914 0 1.447-.495 1.447-1.409s-.533-1.409-1.447-1.409H44.016c-4.951 0-7.541-2.59-7.541-7.58V82.317c0-.914-.495-1.485-1.41-1.485-.914 0-1.409.571-1.409 1.485v10.36c0 6.741 3.542 10.245 10.284 10.245zm39.724 0h10.398c6.741 0 10.245-3.618 10.245-10.245v-10.36c0-.914-.495-1.485-1.41-1.485-.914 0-1.409.571-1.409 1.485v10.207c0 4.99-2.742 7.58-7.54 7.58H83.662c-.914 0-1.447.495-1.447 1.409s.533 1.409 1.447 1.409z" fill="#C4C4C4"/><path d="M73.038 54.132v-14.49H64.315v14.49c0 2.626-8.52 5.813-8.52 9.556v31.765c0 .955 1.102 2.547 3.571 2.547H77.99c2.472 0 3.575-1.592 3.575-2.547V63.688c0-3.743-8.527-6.929-8.527-9.556zm-6.84 4.254c-.552.436-1.168.987-1.838 1.622-.678.636-1.32 1.378-1.974 2.183-.248.411-.504.842-.717 1.274-.008.458-.258.795-.15 1.37l.213 3.344c.132 2.32.157 4.796.19 7.27-.009 4.948-.267 9.9-.666 13.61-.176 1.856-.463 3.402-.598 4.485-.166 1.083-.305 1.703-.305 1.703s-.14-.62-.305-1.703c-.136-1.083-.423-2.628-.598-4.484-.4-3.712-.658-8.663-.667-13.612.03-2.473.055-4.949.19-7.269.074-1.159.146-2.28.212-3.344-.032-.494.29-1.166.472-1.7.355-.503.749-.97 1.124-1.41.457-.404.888-.791 1.303-1.16.472-.335.92-.652 1.337-.953.87-.58 1.643-1.071 2.318-1.454 1.334-.773 2.19-1.152 2.19-1.152s-.668.494-1.731 1.38z" fill="#979797"/><path fill="#C4C4C4" d="M55 65h27v19H55z"/><defs><filter id="filter0_di" x="0" y="0" width="138" height="138" filterUnits="userSpaceOnUse" color-interpolation-filters="sRGB"><feFlood flood-opacity="0" result="BackgroundImageFix"/><feColorMatrix in="SourceAlpha" values="0 0 0 0 0 0 0 0 0 0 0 0 0 0 0 0 0 0 127 0" result="hardAlpha"/><feOffset dy="2"/><feGaussianBlur stdDeviation="2"/><feColorMatrix values="0 0 0 0 0 0 0 0 0 0 0 0 0 0 0 0 0 0 0.25 0"/><feBlend in2="BackgroundImageFix" result="effect1_dropShadow"/><feBlend in="SourceGraphic" in2="effect1_dropShadow" result="shape"/><feColorMatrix in="SourceAlpha" values="0 0 0 0 0 0 0 0 0 0 0 0 0 0 0 0 0 0 127 0" result="hardAlpha"/><feOffset dy="2"/><feGaussianBlur stdDeviation="2"/><feComposite in2="hardAlpha" operator="arithmetic" k2="-1" k3="1"/><feColorMatrix values="0 0 0 0 0 0 0 0 0 0 0 0 0 0 0 0 0 0 0.15 0"/><feBlend in2="shape" result="effect2_innerShadow"/></filter></defs></svg>